<svg width="94" height="94" xmlns="http://www.w3.org/2000/svg" xmlns:xlink="http://www.w3.org/1999/xlink" xml:space="preserve" overflow="hidden"><defs><clipPath id="clip0"><rect x="0" y="0" width="94" height="94"/></clipPath></defs><g clip-path="url(#clip0)"><path d="M91.3022 33.4969 52.0713 18.4945C48.8238 17.2443 45.2279 17.2443 41.9804 18.4945L2.7448 33.4969C1.59359 33.9384 1.01828 35.2296 1.4598 36.3808 1.68654 36.972 2.15363 37.4391 2.7448 37.6658L20.4403 44.4385 20.4403 60.3621C20.4358 61.1623 20.8635 61.9026 21.5589 62.2985 37.5051 70.6692 56.5466 70.6692 72.4928 62.2985 73.1886 61.9036 73.6152 61.1621 73.6067 60.3621L73.6067 44.4385 81.4228 41.4587 81.4228 59.9908C78.8207 60.9316 77.0851 63.3997 77.08 66.1666L77.08 73.3858C77.08 74.6188 78.0795 75.6183 79.3125 75.6183L88.031 75.6183C89.264 75.6183 90.2635 74.6188 90.2635 73.3858L90.2635 66.1666C90.2534 63.3912 88.5029 60.9206 85.8878 59.9908L85.8878 39.7338 91.3022 37.6658C92.4534 37.2243 93.0287 35.9331 92.5872 34.7819 92.3605 34.1907 91.8934 33.7236 91.3022 33.4969ZM85.7985 71.1674 81.5262 71.1674 81.5262 66.1666C81.6221 64.9868 82.6563 64.1082 83.8361 64.2041 84.8826 64.2892 85.7134 65.12 85.7985 66.1666ZM43.5737 22.6634C45.7965 21.8127 48.2552 21.8127 50.478 22.6634L84.2334 35.579 50.4498 48.4993C48.2253 49.3498 45.7653 49.3498 43.5408 48.4993L9.8136 35.579ZM69.1417 59.0085C62.2253 62.2906 54.6788 64.0322 47.0235 64.1127 39.3778 64.0282 31.8413 62.2868 24.9335 59.0085L24.9335 46.1352 42.0039 52.6682C45.2514 53.9184 48.8473 53.9184 52.0948 52.6682L69.1652 46.1352Z" fill="#E17B32"/></g></svg>