<svg width="95" height="95" xmlns="http://www.w3.org/2000/svg" xmlns:xlink="http://www.w3.org/1999/xlink" xml:space="preserve" overflow="hidden"><defs><clipPath id="clip0"><rect x="0" y="0" width="95" height="95"/></clipPath></defs><g clip-path="url(#clip0)"><path d="M56.05 13.68C69.2788 13.68 78.8785 24.4102 79.5768 36.1427 90.1593 39.7098 95.8466 51.1804 92.2795 61.763 89.5078 69.9858 81.7988 75.5235 73.1215 75.525L21.926 75.525C10.1508 75.525 1.6625 67.45 1.6625 57.4085 1.6625 49.5045 6.8305 41.8475 14.6632 39.71 15.1715 33.535 18.202 28.785 22.4295 26.2437 26.5463 23.8132 31.5335 23.3481 36.0287 24.9755 40.243 17.9425 47.8511 13.6502 56.05 13.68ZM56.05 17.955C48.7454 17.8782 42.0355 21.9705 38.76 28.5 38.232 29.5455 36.9597 29.9696 35.91 29.45L35.91 29.45C32.3268 27.6688 28.0839 27.8317 24.6477 29.8822 21.2705 31.9105 18.7483 35.6677 18.7483 41.4152 18.7474 42.4514 18.002 43.3371 16.9812 43.5148 10.5735 44.5882 5.947 50.9865 5.947 57.4132 5.947 65.132 12.0365 71.2785 21.945 71.2785L73.1215 71.2785C81.9543 71.2826 89.1181 64.1255 89.1222 55.2927 89.1256 47.9691 84.1541 41.5788 77.0545 39.7812 76.1008 39.534 75.4397 38.6669 75.4538 37.6818 75.5535 27.664 67.45 17.9455 56.05 17.9455Z" fill="#E17B32"/></g></svg>