<svg width="96" height="96" xmlns="http://www.w3.org/2000/svg" xmlns:xlink="http://www.w3.org/1999/xlink" xml:space="preserve" overflow="hidden"><defs><clipPath id="clip0"><rect x="0" y="0" width="96" height="96"/></clipPath></defs><g clip-path="url(#clip0)"><path d="M28.8 14.6976 3.0336 14.6976C1.99177 14.6949 1.14505 15.5374 1.1424 16.5792 1.14239 16.5824 1.14239 16.5856 1.1424 16.5888L1.1424 78.6768C1.13975 79.7186 1.98216 80.5653 3.02399 80.568 3.02719 80.568 3.0304 80.568 3.0336 80.568L28.8 80.568C29.838 80.5525 30.6757 79.7148 30.6912 78.6768L30.6912 16.5888C30.6912 15.5443 29.8445 14.6976 28.8 14.6976ZM26.88 76.8 4.9248 76.8 4.9248 18.48 26.88 18.48 26.88 76.8Z" fill="#E17B32"/><path d="M93.0144 21.3312 36.6144 21.3312C35.5699 21.3312 34.7232 22.1779 34.7232 23.2224L34.7232 66.5424C34.7205 67.5842 35.563 68.4309 36.6048 68.4336 36.608 68.4336 36.6112 68.4336 36.6144 68.4336L59.4048 68.4336 59.4048 76.8 55.9728 76.8C54.9283 76.8 54.0816 77.6467 54.0816 78.6912 54.0816 79.7357 54.9283 80.5824 55.9728 80.5824L73.656 80.5824C74.7005 80.5824 75.5472 79.7357 75.5472 78.6912 75.5472 77.6467 74.7005 76.8 73.656 76.8L70.224 76.8 70.224 68.448 93.0144 68.448C94.0589 68.4507 94.9077 67.6061 94.9104 66.5616 94.9104 66.56 94.9104 66.5584 94.9104 66.5568L94.9104 23.2224C94.8949 22.1826 94.0543 21.3441 93.0144 21.3312ZM66.4416 76.8 63.192 76.8 63.192 68.448 66.4416 68.448ZM91.1232 64.6656 38.5056 64.6656 38.5056 25.1184 91.1232 25.1184 91.1232 64.6512Z" fill="#E17B32"/><path d="M44.16 60.8928 85.4832 60.8928C86.5277 60.8928 87.3744 60.0461 87.3744 59.0016L87.3744 30.7632C87.3744 29.7187 86.5277 28.872 85.4832 28.872L44.16 28.872C43.1182 28.8693 42.2715 29.7118 42.2688 30.7536 42.2688 30.7568 42.2688 30.76 42.2688 30.7632L42.2688 59.0016C42.2661 60.0434 43.1086 60.8901 44.1504 60.8928 44.1536 60.8928 44.1568 60.8928 44.16 60.8928ZM46.0464 32.64 83.5824 32.64 83.5824 57.12 46.0464 57.12Z" fill="#E17B32"/><path d="M9.7584 69.3984 22.08 69.3984C23.1245 69.3984 23.9712 68.5517 23.9712 67.5072 23.9712 66.4627 23.1245 65.616 22.08 65.616L9.7584 65.616C8.71392 65.616 7.8672 66.4627 7.8672 67.5072 7.8672 68.5517 8.71392 69.3984 9.7584 69.3984Z" fill="#E17B32"/><path d="M9.7584 61.8336 22.08 61.8336C23.1258 61.7809 23.9309 60.8904 23.8782 59.8446 23.8293 58.8725 23.0521 58.0954 22.08 58.0464L9.7584 58.0464C8.71259 58.0991 7.9075 58.9896 7.96017 60.0354 8.00913 61.0075 8.78627 61.7846 9.7584 61.8336Z" fill="#E17B32"/><path d="M9.7584 54.264 22.08 54.264C23.1245 54.264 23.9712 53.4173 23.9712 52.3728 23.9712 51.3283 23.1245 50.4816 22.08 50.4816L9.7584 50.4816C8.71392 50.4816 7.8672 51.3283 7.8672 52.3728 7.8672 53.4173 8.71392 54.264 9.7584 54.264Z" fill="#E17B32"/><path d="M19.1712 30.8976C19.1712 32.7003 17.7099 34.1616 15.9072 34.1616 14.1045 34.1616 12.6432 32.7003 12.6432 30.8976 12.6432 29.0949 14.1045 27.6336 15.9072 27.6336 17.7099 27.6336 19.1712 29.0949 19.1712 30.8976Z" fill="#E17B32"/></g></svg>